<?xml version="1.0" standalone="no"?><!DOCTYPE svg PUBLIC "-//W3C//DTD SVG 1.1//EN" "http://www.w3.org/Graphics/SVG/1.1/DTD/svg11.dtd"><svg t="1611953050996" class="icon" viewBox="0 0 1024 1024" version="1.1" xmlns="http://www.w3.org/2000/svg" p-id="5589" data-spm-anchor-id="a313x.7781069.0.i24" xmlns:xlink="http://www.w3.org/1999/xlink" width="128" height="128"><defs><style type="text/css"></style></defs><path d="M723.712 301.354667a170.752 170.752 0 0 1 25.856 206.848L515.84 274.474667a170.752 170.752 0 0 1 206.890667 25.856l0.512 0.512 0.512 0.512z m87.466667-28.16a256.085333 256.085333 0 0 1-27.648 329.344l-12.714667 12.714666a24.661333 24.661333 0 0 1-34.858667 0l-73.088-73.045333-60.330666 60.288a42.666667 42.666667 0 1 1-60.330667-60.330667l60.330667-60.330666-60.373334-60.330667-60.288 60.330667A42.666667 42.666667 0 0 1 421.546667 421.504l60.288-60.330667-73.045334-73.088a24.661333 24.661333 0 0 1 0-34.858666l12.714667-12.714667a256.085333 256.085333 0 0 1 329.386667-27.690667l62.848-62.848a42.666667 42.666667 0 0 1 60.330666 60.330667l-62.848 62.848zM150.016 874.026667a42.666667 42.666667 0 0 1 0-60.330667l62.890667-62.890667a256.085333 256.085333 0 0 1 27.648-329.386666l12.757333-12.714667a24.661333 24.661333 0 0 1 34.858667 0l327.168 327.168a24.661333 24.661333 0 0 1 0 34.858667l-12.757334 12.757333a256.085333 256.085333 0 0 1-329.386666 27.648L210.346667 874.069333a42.666667 42.666667 0 0 1-60.330667 0z m358.272-124.501334l-233.770667-233.813333a170.752 170.752 0 0 0 233.770667 233.813333z" fill="#ffffff" p-id="5590" data-spm-anchor-id="a313x.7781069.0.i23" class="selected"></path></svg>