<?xml version="1.0" standalone="no"?><!DOCTYPE svg PUBLIC "-//W3C//DTD SVG 1.1//EN" "http://www.w3.org/Graphics/SVG/1.1/DTD/svg11.dtd"><svg t="1612622129772" class="icon" viewBox="0 0 1024 1024" version="1.1" xmlns="http://www.w3.org/2000/svg" p-id="2375" xmlns:xlink="http://www.w3.org/1999/xlink" width="128" height="128"><defs><style type="text/css"></style></defs><path d="M733.397333 290.901333a22.741333 22.741333 0 0 0-32.170666 0l-182.101334 182.101334-182.101333-182.101334a22.741333 22.741333 0 0 0-32.170667 0l-28.16 28.16a22.741333 22.741333 0 0 0 0 32.170667l182.058667 182.101333-167.850667 167.850667a22.741333 22.741333 0 0 0 0 32.213333l28.16 28.16a22.741333 22.741333 0 0 0 32.170667 0l167.893333-167.893333L686.933333 761.6a22.741333 22.741333 0 0 0 32.213334 0l28.16-28.16a22.741333 22.741333 0 0 0 0-32.213333L579.413333 533.333333l182.101334-182.101333a22.741333 22.741333 0 0 0 0-32.170667l-28.16-28.16zM14.208 500.608c0-9.386667 7.68-17.066667 17.066667-17.066667H110.933333c9.386667 0 17.066667 7.68 17.066667 17.066667v51.2a17.066667 17.066667 0 0 1-17.066667 17.066667H31.274667a17.066667 17.066667 0 0 1-17.066667-17.066667v-51.2z" fill="#F54A45" p-id="2376"></path><path d="M216.192 483.541333a17.066667 17.066667 0 0 0-17.066667 17.066667v51.2c0 9.429333 7.637333 17.066667 17.066667 17.066667h79.616a17.066667 17.066667 0 0 0 17.066667-17.066667v-51.2a17.066667 17.066667 0 0 0-17.066667-17.066667H216.192zM896 500.608c0-9.386667 7.68-17.066667 17.066667-17.066667h79.658666c9.386667 0 17.066667 7.68 17.066667 17.066667v51.2a17.066667 17.066667 0 0 1-17.066667 17.066667H913.066667a17.066667 17.066667 0 0 1-17.066667-17.066667v-51.2zM728.192 483.541333a17.066667 17.066667 0 0 0-17.066667 17.066667v51.2c0 9.429333 7.637333 17.066667 17.066667 17.066667h79.616a17.066667 17.066667 0 0 0 17.066667-17.066667v-51.2a17.066667 17.066667 0 0 0-17.066667-17.066667h-79.616z" fill="#F54A45" p-id="2377"></path></svg>