<svg width="64" height="64" xmlns="http://www.w3.org/2000/svg">

 <g>
  <title>background</title>
  <rect fill="none" id="canvas_background" height="602" width="802" y="-1" x="-1"/>
 </g>
 <g>
  <title>Layer 1</title>
  <path id="svg_1" fill="#838f9b" d="m52,58l0,2c0,1.1 -0.9,2 -2,2l-34,0c-1.1,0 -2,-0.9 -2,-2l0,-2.14c0.65,0.09 1.32,0.14 2,0.14c2.64,0 5.11,-0.73 7.22,-2l26.78,0c1.1,0 2,0.9 2,2z"/>
  <path id="svg_2" fill="#aab2bd" d="m16,2l34,0l0,54l-34,0l0,-54z"/>
  <path id="svg_3" fill="#fcd770" d="m30,44c0,5.09 -2.72,9.55 -6.78,12c-2.11,1.27 -4.58,2 -7.22,2c-0.68,0 -1.35,-0.05 -2,-0.14c-6.78,-0.97 -12,-6.81 -12,-13.86c0,-7.73 6.27,-14 14,-14s14,6.27 14,14z"/>
  <path id="svg_4" fill="#b4dd7f" d="m22,48c0,3.31 -2.69,6 -6,6s-6,-2.69 -6,-6l0,-4c0,-1.1 0.9,-2 2,-2l8,0c1.1,0 2,0.9 2,2l0,4z"/>
  <circle id="svg_5" r="2" fill="#fcd770" cy="47" cx="16"/>
  <path id="svg_6" fill="#69d6f4" d="m46,7l0,8c0,0.55 -0.45,1 -1,1l-24,0c-0.55,0 -1,-0.45 -1,-1l0,-8c0,-0.55 0.45,-1 1,-1l24,0c0.55,0 1,0.45 1,1z"/>
  <path id="svg_7" fill="#ffeaa7" d="m44,34l3.59,0c-0.77,1.76 -2.54,3 -4.59,3c-2.76,0 -5,-2.24 -5,-5s2.24,-5 5,-5c2.05,0 3.81,1.23 4.58,3l-3.58,0c-0.55,0 -1.05,0.22 -1.41,0.59c-0.37,0.36 -0.59,0.86 -0.59,1.41c0,1.1 0.9,2 2,2z"/>
  <path id="svg_8" fill="#fcd770" d="m50,30l10,0c1.1,0 2,0.9 2,2c0,0.55 -0.22,1.05 -0.59,1.41c-0.36,0.37 -0.86,0.59 -1.41,0.59l-10,0l-2.41,0l-3.59,0c-1.1,0 -2,-0.9 -2,-2c0,-0.55 0.22,-1.05 0.59,-1.41c0.36,-0.37 0.86,-0.59 1.41,-0.59l3.58,0l2.42,0z"/>
  <path id="svg_9" d="m23,48l0,-4c0,-1.302 -0.839,-2.402 -2,-2.816l0,-3.184c0,-2.757 -2.243,-5 -5,-5s-5,2.243 -5,5l0,3.184c-1.161,0.414 -2,1.514 -2,2.816l0,4c0,3.859 3.141,7 7,7s7,-3.141 7,-7zm-7,-13c1.654,0 3,1.346 3,3l0,3l-6,0l0,-3c0,-1.654 1.346,-3 3,-3zm-5,13l0,-4c0,-0.552 0.448,-1 1,-1l8,0c0.552,0 1,0.448 1,1l0,4c0,2.757 -2.243,5 -5,5s-5,-2.243 -5,-5z"/>
  <path id="svg_10" d="m17,52l0,-2.184c1.161,-0.414 2,-1.514 2,-2.816c0,-1.654 -1.346,-3 -3,-3s-3,1.346 -3,3c0,1.302 0.839,2.402 2,2.816l0,2.184l2,0zm-1,-6c0.552,0 1,0.448 1,1s-0.448,1 -1,1s-1,-0.448 -1,-1s0.448,-1 1,-1z"/>
  <path id="svg_11" d="m47,15l0,-8c0,-1.103 -0.897,-2 -2,-2l-24,0c-1.103,0 -2,0.897 -2,2l0,8c0,1.103 0.897,2 2,2l24,0c1.103,0 2,-0.897 2,-2zm-26,-8l24,0l0.002,8l-24.002,0l0,-8z"/>
  <path id="svg_12" d="m60,29l-9,0l0,-28l-36,0l0,28.051c-7.805,0.518 -14,7.015 -14,14.949c0,7.244 5.161,13.304 12,14.698l0,1.302c0,1.654 1.346,3 3,3l34,0c1.654,0 3,-1.346 3,-3l0,-2c0,-1.302 -0.839,-2.402 -2,-2.816l0,-20.184l9,0c1.654,0 3,-1.346 3,-3s-1.346,-3 -3,-3zm-57,15c0,-7.168 5.832,-13 13,-13s13,5.832 13,13s-5.832,13 -13,13s-13,-5.832 -13,-13zm48,16c0,0.552 -0.448,1 -1,1l-34,0c-0.552,0 -1,-0.448 -1,-1l0,-1.051c0.332,0.022 0.662,0.051 1,0.051c2.713,0 5.253,-0.735 7.452,-2l26.548,0c0.552,0 1,0.448 1,1l0,2zm-2,-5l-22.836,0c2.965,-2.742 4.836,-6.652 4.836,-11c0,-7.934 -6.195,-14.431 -14,-14.949l0,-26.051l32,0l0,26l-0.816,0c-1.064,-1.838 -3.027,-3 -5.184,-3c-3.309,0 -6,2.691 -6,6s2.691,6 6,6c2.164,0 4.124,-1.16 5.187,-3l0.813,0l0,20zm-5,-20l1.646,0c-0.716,0.631 -1.649,1 -2.646,1c-2.206,0 -4,-1.794 -4,-4s1.794,-4 4,-4c0.994,0 1.929,0.368 2.646,1l-1.646,0c-1.654,0 -3,1.346 -3,3s1.346,3 3,3zm16,-2l-16,0c-0.552,0 -1,-0.448 -1,-1s0.448,-1 1,-1l16,0c0.552,0 1,0.448 1,1s-0.448,1 -1,1z"/>
  <path fill="white" id="svg_13" d="m7,29c0,-1.103 0.897,-2 2,-2l0,-2c-2.206,0 -4,1.794 -4,4l2,0z"/>
  <path fill="#ffffff" stroke-width="0" id="svg_14" d="m9,23l0,-2c-4.411,0 -8,3.589 -8,8l2,0c0,-3.309 2.691,-6 6,-6z"/>
  <path id="svg_15" d="m19,19l2,0l0,2l-2,0l0,-2z"/>
  <path id="svg_16" d="m19,27l2,0l0,2l-2,0l0,-2z"/>
  <path id="svg_17" d="m19,23l2,0l0,2l-2,0l0,-2z"/>
  <path id="svg_18" d="m45,47l2,0l0,2l-2,0l0,-2z"/>
  <path id="svg_19" d="m45,51l2,0l0,2l-2,0l0,-2z"/>
  <path id="svg_20" d="m45,43l2,0l0,2l-2,0l0,-2z"/>
  <path id="svg_21" d="m3.22959,24.42616" opacity="0.5" fill-opacity="null" stroke-width="0" stroke="#ffffff" fill="null"/>
 </g>
</svg>